<?xml version="1.0" standalone="no"?>
<svg xmlns:xlink="http://www.w3.org/1999/xlink" id="wave" style="transform:rotate(0deg); transition: 0.3s" viewBox="0 0 1440 430" version="1.1" xmlns="http://www.w3.org/2000/svg"><defs><linearGradient id="sw-gradient-0" x1="0" x2="0" y1="1" y2="0"><stop stop-color="rgba(243.936, 37.959, 69.428, 1)" offset="0%"/><stop stop-color="rgba(255, 202, 212, 1)" offset="100%"/></linearGradient></defs><path style="transform:translate(0, 0px); opacity:1" fill="url(#sw-gradient-0)" d="M0,129L48,164.8C96,201,192,272,288,293.8C384,315,480,287,576,229.3C672,172,768,86,864,107.5C960,129,1056,258,1152,293.8C1248,330,1344,272,1440,215C1536,158,1632,100,1728,129C1824,158,1920,272,2016,293.8C2112,315,2208,244,2304,229.3C2400,215,2496,258,2592,229.3C2688,201,2784,100,2880,78.8C2976,57,3072,115,3168,179.2C3264,244,3360,315,3456,315.3C3552,315,3648,244,3744,186.3C3840,129,3936,86,4032,71.7C4128,57,4224,72,4320,78.8C4416,86,4512,86,4608,78.8C4704,72,4800,57,4896,71.7C4992,86,5088,129,5184,172C5280,215,5376,258,5472,236.5C5568,215,5664,129,5760,78.8C5856,29,5952,14,6048,21.5C6144,29,6240,57,6336,78.8C6432,100,6528,115,6624,164.8C6720,215,6816,301,6864,344L6912,387L6912,430L6864,430C6816,430,6720,430,6624,430C6528,430,6432,430,6336,430C6240,430,6144,430,6048,430C5952,430,5856,430,5760,430C5664,430,5568,430,5472,430C5376,430,5280,430,5184,430C5088,430,4992,430,4896,430C4800,430,4704,430,4608,430C4512,430,4416,430,4320,430C4224,430,4128,430,4032,430C3936,430,3840,430,3744,430C3648,430,3552,430,3456,430C3360,430,3264,430,3168,430C3072,430,2976,430,2880,430C2784,430,2688,430,2592,430C2496,430,2400,430,2304,430C2208,430,2112,430,2016,430C1920,430,1824,430,1728,430C1632,430,1536,430,1440,430C1344,430,1248,430,1152,430C1056,430,960,430,864,430C768,430,672,430,576,430C480,430,384,430,288,430C192,430,96,430,48,430L0,430Z"/></svg>